<svg xmlns="http://www.w3.org/2000/svg" version="1.1" xmlns:xlink="http://www.w3.org/1999/xlink" xmlns:svgjs="http://svgjs.dev/svgjs" width="1500" height="1500" viewBox="0 0 1500 1500"><g transform="matrix(1,0,0,1,0,0)"><svg viewBox="0 0 280 280" data-background-color="#ffffff" preserveAspectRatio="xMidYMid meet" height="1500" width="1500" xmlns="http://www.w3.org/2000/svg" xmlns:xlink="http://www.w3.org/1999/xlink"><g id="tight-bounds" transform="matrix(1,0,0,1,0,0)"><svg viewBox="0 0 280 280" height="280" width="280"><g><svg viewBox="0 0 280 280" height="280" width="280"><g><svg viewBox="0 0 280 280" height="280" width="280"><g id="textblocktransform"><svg viewBox="0 0 280 280" height="280" width="280" id="textblock"><g><svg viewBox="0 0 280 280" height="280" width="280"><g transform="matrix(1,0,0,1,74.00336708925556,74.00336708925556)"><svg viewBox="0 0 131.99326582148888 131.99326582148888" height="131.99326582148888" width="131.99326582148888"><g id="icon-0"><svg xmlns="http://www.w3.org/2000/svg" xmlns:xlink="http://www.w3.org/1999/xlink" version="1.1" x="0" y="0" viewBox="7 7 86 86" enable-background="new 0 0 100 100" xml:space="preserve" height="131.99326582148888" width="131.99326582148888" class="icon-jxe-0" data-fill-palette-color="accent" id="jxe-0"><g fill="#aba944" data-fill-palette-color="accent"><path d="M31.336 71.678A0.5 0.5 0 0 0 31.836 71.178V65.511A0.5 0.5 0 0 0 30.836 65.511V71.178A0.5 0.5 0 0 0 31.336 71.678" fill="#aba944" data-fill-palette-color="accent"></path><path d="M32.038 54.814A0.5 0.5 0 0 0 32.538 54.314V48.648A0.5 0.5 0 0 0 31.538 48.648V54.314A0.5 0.5 0 0 0 32.038 54.814" fill="#aba944" data-fill-palette-color="accent"></path><path d="M35.413 83.511A0.5 0.5 0 0 0 35.913 83.011V77.344A0.5 0.5 0 0 0 34.913 77.344V83.011A0.5 0.5 0 0 0 35.413 83.511" fill="#aba944" data-fill-palette-color="accent"></path><path d="M41.663 68.344A0.5 0.5 0 0 0 41.163 68.844V74.511A0.5 0.5 0 0 0 42.163 74.511V68.844A0.5 0.5 0 0 0 41.663 68.344" fill="#aba944" data-fill-palette-color="accent"></path><path d="M50.413 75.849A0.5 0.5 0 0 0 49.913 76.349V82.016A0.5 0.5 0 0 0 50.913 82.016V76.349A0.5 0.5 0 0 0 50.413 75.849" fill="#aba944" data-fill-palette-color="accent"></path><path d="M59.163 77.844A0.5 0.5 0 0 0 58.663 78.344V84.011A0.5 0.5 0 0 0 59.663 84.011V78.344A0.5 0.5 0 0 0 59.163 77.844" fill="#aba944" data-fill-palette-color="accent"></path><path d="M61.663 65.011A0.5 0.5 0 0 0 61.163 65.511V71.178A0.5 0.5 0 0 0 62.163 71.178V65.511A0.5 0.5 0 0 0 61.663 65.011" fill="#aba944" data-fill-palette-color="accent"></path><path d="M67.163 61.678A0.5 0.5 0 0 0 67.663 61.178V55.512A0.5 0.5 0 0 0 66.663 55.512V61.178A0.5 0.5 0 0 0 67.163 61.678" fill="#aba944" data-fill-palette-color="accent"></path><circle cx="60.813" cy="36.25" r="2.5" fill="#aba944" data-fill-palette-color="accent"></circle><circle cx="39.312" cy="36.25" r="2.5" fill="#aba944" data-fill-palette-color="accent"></circle><path d="M38.705 54.257C38.805 54.257 38.906 54.242 39.006 54.211A34 34 0 0 1 41.057 53.652C43.014 56.646 46.402 58.5 50.063 58.5 53.706 58.5 57.087 56.66 59.047 53.685 59.706 53.849 60.367 54.012 61.007 54.211A1 1 0 0 0 62.175 53.747C63.054 52.187 63.5 50.515 63.5 48.774 63.5 42.443 57.444 37.293 50.001 37.293S36.502 42.443 36.502 48.774C36.502 50.51 36.951 52.184 37.835 53.749 38.015 54.069 38.352 54.257 38.705 54.257M50.062 56.5C47.345 56.5 44.806 55.259 43.173 53.201A37.4 37.4 0 0 1 50 52.557C52.313 52.557 54.65 52.802 56.928 53.229 55.293 55.27 52.764 56.5 50.062 56.5M50 39.293C56.341 39.293 61.499 43.546 61.499 48.774A7.9 7.9 0 0 1 60.789 52.058C57.681 51.17 54.355 50.685 51.062 50.594V46.931C53.344 46.62 55.062 45.267 55.062 43.645 55.062 41.793 52.823 40.291 50.062 40.291S45.062 41.793 45.062 43.645C45.062 45.267 46.78 46.62 49.062 46.931V50.589C45.666 50.666 42.358 51.145 39.216 52.057A7.9 7.9 0 0 1 38.501 48.774C38.501 43.546 43.659 39.293 50 39.293" fill="#aba944" data-fill-palette-color="accent"></path><circle cx="41.566" cy="47.643" r="0.63" fill="#aba944" data-fill-palette-color="accent"></circle><circle cx="43.566" cy="46.288" r="0.63" fill="#aba944" data-fill-palette-color="accent"></circle><circle cx="43.566" cy="49.133" r="0.63" fill="#aba944" data-fill-palette-color="accent"></circle><circle cx="58.625" cy="47.643" r="0.63" fill="#aba944" data-fill-palette-color="accent"></circle><circle cx="56.625" cy="46.288" r="0.63" fill="#aba944" data-fill-palette-color="accent"></circle><circle cx="56.625" cy="49.133" r="0.63" fill="#aba944" data-fill-palette-color="accent"></circle><path d="M50 7C26.29 7 7 26.29 7 50S26.29 93 50 93 93 73.71 93 50 73.71 7 50 7M29.699 31.545A1.148 1.148 0 0 1 31.346 30.509C30.824 31.009 30.321 31.527 29.84 32.067A1.1 1.1 0 0 1 29.699 31.545M50 27C62.683 27 73 37.318 73 50V78.951A37 37 0 0 1 69.288 81.561V76.348A0.5 0.5 0 0 0 68.288 76.348V82.015C68.288 82.056 68.302 82.092 68.311 82.13A36.75 36.75 0 0 1 50 87C41.312 87 33.319 83.982 26.999 78.95L27 50C27 37.318 37.318 27 50 27M70.183 32.092A27 27 0 0 0 68.671 30.524C69.105 30.307 69.641 30.365 70.002 30.727 70.373 31.098 70.422 31.652 70.183 32.092M77 75.261V50A26.83 26.83 0 0 0 72.666 35.356L72.83 35.191A5.16 5.16 0 0 0 72.83 27.898 5.16 5.16 0 0 0 65.537 27.898L65.514 27.921A26.85 26.85 0 0 0 50 23 26.84 26.84 0 0 0 34.509 27.906L34.502 27.899A5.16 5.16 0 0 0 27.21 27.899C26.236 28.873 25.699 30.168 25.699 31.546S26.236 34.219 27.21 35.192L27.35 35.332A26.83 26.83 0 0 0 23 50L22.999 75.26C16.804 68.642 13 59.759 13 50 13 29.598 29.598 13 50 13S87 29.598 87 50C87 59.76 83.195 68.643 77 75.261" fill="#aba944" data-fill-palette-color="accent"></path></g></svg></g></svg></g><g id="text-0"><path d="M28.531 99.277v0c-0.454 1.325-1.128 2.447-2.023 3.366-0.893 0.913-1.933 1.609-3.12 2.087-1.184 0.472-2.476 0.716-3.873 0.731-1.402 0.006-2.827-0.239-4.275-0.735v0c-1.448-0.496-2.716-1.166-3.806-2.01-1.098-0.84-1.965-1.804-2.6-2.893-0.636-1.088-1.018-2.271-1.147-3.548-0.135-1.279 0.031-2.601 0.498-3.964v0c0.456-1.331 1.128-2.457 2.017-3.379 0.884-0.93 1.912-1.634 3.083-2.111 1.174-0.483 2.456-0.733 3.848-0.75 1.385-0.019 2.801 0.219 4.249 0.715v0c1.448 0.496 2.726 1.169 3.835 2.02 1.102 0.849 1.978 1.82 2.626 2.912 0.649 1.093 1.043 2.283 1.182 3.572 0.137 1.295-0.028 2.624-0.494 3.987zM20.702 90.361v0c-0.967-0.331-1.954-0.553-2.96-0.665-1.006-0.112-1.954-0.067-2.843 0.137-0.889 0.203-1.685 0.588-2.386 1.152-0.699 0.559-1.221 1.341-1.566 2.348v0c-0.327 0.954-0.411 1.847-0.253 2.677 0.152 0.828 0.483 1.576 0.995 2.245 0.505 0.666 1.139 1.25 1.903 1.75 0.766 0.495 1.591 0.893 2.474 1.195v0c0.974 0.333 1.961 0.555 2.96 0.666 1.008 0.106 1.953 0.059 2.834-0.14 0.887-0.197 1.676-0.572 2.366-1.127 0.693-0.561 1.211-1.344 1.556-2.351v0c0.322-0.941 0.404-1.827 0.246-2.657-0.158-0.83-0.484-1.584-0.978-2.261-0.5-0.679-1.132-1.269-1.897-1.77-0.758-0.499-1.575-0.898-2.451-1.198z" fill="#556970" data-fill-palette-color="primary"></path><path d="M35.479 51.153l8.222 6.841c0.644 0.535 1.213 0.946 1.707 1.232 0.494 0.286 0.935 0.47 1.322 0.551 0.378 0.082 0.71 0.064 0.997-0.055 0.292-0.114 0.549-0.306 0.773-0.575v0c0.18-0.216 0.329-0.422 0.448-0.619 0.118-0.196 0.212-0.373 0.28-0.53v0c0.086-0.178 0.151-0.348 0.195-0.507v0l2.601 0.463c0.013 0.145-0.003 0.341-0.049 0.589-0.051 0.243-0.13 0.521-0.238 0.833-0.109 0.302-0.257 0.625-0.444 0.969-0.188 0.344-0.424 0.687-0.71 1.03v0c-0.724 0.871-1.473 1.448-2.246 1.734-0.774 0.276-1.563 0.333-2.367 0.174-0.804-0.16-1.615-0.495-2.431-1.005-0.821-0.505-1.651-1.106-2.49-1.804v0l-7.875-6.551-1.817 2.184-2.326-1.935 1.817-2.184-3.047-2.535 0.622-4.048 4.67 3.884 4.128-4.962 2.083 2.228z" fill="#556970" data-fill-palette-color="primary"></path><path d="M67.956 23.122l5.698 9.052c0.446 0.709 0.86 1.275 1.241 1.701 0.381 0.425 0.743 0.736 1.086 0.934 0.334 0.195 0.655 0.281 0.964 0.256 0.313-0.018 0.617-0.121 0.914-0.307v0c0.238-0.15 0.444-0.3 0.617-0.449 0.173-0.15 0.317-0.289 0.431-0.418v0c0.137-0.143 0.251-0.284 0.342-0.422v0l2.33 1.247c-0.032 0.142-0.108 0.324-0.229 0.545-0.124 0.216-0.285 0.455-0.484 0.718-0.197 0.254-0.438 0.515-0.723 0.784-0.285 0.269-0.616 0.522-0.994 0.759v0c-0.958 0.603-1.849 0.921-2.673 0.953-0.821 0.022-1.589-0.167-2.304-0.569-0.715-0.401-1.382-0.971-2-1.709-0.624-0.734-1.227-1.563-1.809-2.487v0l-5.456-8.669-2.405 1.514-1.612-2.562 2.405-1.513-2.111-3.355 1.847-3.656 3.235 5.141 5.463-3.438 1.289 2.764z" fill="#556970" data-fill-palette-color="primary"></path><path d="M121.171 17.5l2.4 1.327c-0.295 0.48-0.634 0.937-1.016 1.372-0.382 0.435-0.825 0.835-1.328 1.199-0.503 0.364-1.076 0.683-1.718 0.958-0.649 0.276-1.386 0.505-2.21 0.686v0c-1.642 0.361-3.106 0.381-4.393 0.06-1.288-0.328-2.407-0.897-3.358-1.707-0.946-0.818-1.728-1.819-2.347-3.004-0.619-1.185-1.079-2.461-1.38-3.828v0c-0.193-0.878-0.304-1.764-0.332-2.657-0.028-0.893 0.034-1.764 0.184-2.613 0.151-0.848 0.394-1.661 0.729-2.437 0.337-0.77 0.77-1.466 1.301-2.088 0.537-0.624 1.181-1.163 1.932-1.616 0.742-0.458 1.603-0.795 2.581-1.011v0c1.334-0.293 2.535-0.329 3.603-0.107 1.073 0.214 2.017 0.639 2.831 1.274 0.815 0.636 1.496 1.466 2.045 2.491 0.547 1.018 0.966 2.187 1.256 3.508v0c0.084 0.382 0.163 0.804 0.236 1.265 0.073 0.462 0.132 0.902 0.175 1.322v0l-12.819 2.82c0.203 0.925 0.521 1.762 0.953 2.51 0.432 0.748 0.941 1.371 1.528 1.867 0.587 0.496 1.243 0.844 1.968 1.042 0.719 0.2 1.48 0.212 2.285 0.035v0c0.791-0.174 1.468-0.386 2.031-0.636 0.558-0.242 1.03-0.494 1.415-0.754 0.379-0.259 0.683-0.505 0.913-0.739 0.23-0.233 0.408-0.413 0.535-0.539zM111.617 11.348l6.767-1.488c-0.018-0.144-0.041-0.283-0.071-0.417-0.023-0.136-0.049-0.27-0.078-0.404v0c-0.155-0.704-0.378-1.336-0.671-1.898-0.291-0.554-0.645-1.017-1.064-1.389-0.424-0.363-0.918-0.613-1.483-0.749-0.557-0.137-1.181-0.13-1.871 0.022v0c-0.831 0.183-1.509 0.472-2.033 0.869-0.532 0.391-0.954 0.839-1.265 1.343-0.311 0.504-0.529 1.03-0.654 1.577-0.134 0.542-0.215 1.052-0.243 1.529v0l-0.523 2.223z" fill="#556970" data-fill-palette-color="primary"></path><path d="M165.475 4.647v0c-0.503-0.069-1.01-0.037-1.519 0.094-0.517 0.137-1.027 0.342-1.528 0.613-0.495 0.279-0.974 0.615-1.436 1.009-0.463 0.401-0.899 0.826-1.306 1.277v0l-1.921 14.097-3.57-0.487 2.816-20.666 3.621 0.11-0.575 4.222 2.334-3.027c0.177-0.08 0.395-0.154 0.654-0.222 0.253-0.076 0.541-0.134 0.865-0.174 0.331-0.038 0.677-0.06 1.038-0.066 0.369-0.012 0.74 0.007 1.114 0.058v0c0.564 0.077 1.03 0.192 1.397 0.347 0.367 0.154 0.64 0.288 0.818 0.402v0l-0.619 3.095c-0.174-0.093-0.445-0.213-0.814-0.36-0.362-0.139-0.818-0.247-1.369-0.322z" fill="#556970" data-fill-palette-color="primary"></path><path d="M202.087 19.642l-7.389 14.2-3.196-1.663 9.628-18.501 3.372 1.325-1.602 3.078 1.968-1.262c0.271-0.029 0.602-0.035 0.995-0.017 0.387 0.015 0.806 0.064 1.259 0.145 0.444 0.084 0.911 0.204 1.403 0.359 0.492 0.155 0.966 0.352 1.423 0.589v0c0.889 0.463 1.563 0.995 2.023 1.598 0.46 0.603 0.741 1.275 0.842 2.017 0.105 0.735 0.038 1.525-0.199 2.368-0.235 0.853-0.596 1.748-1.084 2.685v0l-6.568 12.621-3.196-1.664 6.568-12.62c0.314-0.603 0.542-1.145 0.684-1.628 0.143-0.483 0.185-0.921 0.127-1.315-0.058-0.394-0.226-0.748-0.503-1.062-0.277-0.315-0.675-0.606-1.192-0.876v0c-0.377-0.196-0.794-0.34-1.25-0.43-0.453-0.081-0.916-0.128-1.388-0.142-0.476-0.008-0.947 0.006-1.414 0.041-0.47 0.042-0.907 0.093-1.311 0.154z" fill="#556970" data-fill-palette-color="primary"></path><path d="M239.447 66.428l-0.069 2.742c-0.562-0.04-1.124-0.129-1.686-0.268-0.563-0.138-1.121-0.346-1.676-0.624-0.555-0.279-1.103-0.639-1.643-1.082-0.545-0.448-1.088-0.996-1.629-1.644v0c-1.079-1.29-1.772-2.58-2.082-3.869-0.304-1.294-0.316-2.55-0.036-3.767 0.289-1.217 0.816-2.373 1.581-3.469 0.765-1.096 1.685-2.093 2.759-2.991v0c0.69-0.577 1.424-1.084 2.204-1.521 0.78-0.437 1.58-0.785 2.402-1.043 0.822-0.258 1.655-0.418 2.499-0.479 0.838-0.057 1.656 0.006 2.453 0.19 0.802 0.188 1.577 0.511 2.325 0.968 0.749 0.447 1.446 1.055 2.088 1.823v0c0.876 1.048 1.462 2.096 1.759 3.146 0.306 1.05 0.365 2.084 0.176 3.1-0.188 1.016-0.61 2.004-1.265 2.964-0.65 0.955-1.494 1.867-2.532 2.733v0c-0.3 0.251-0.638 0.516-1.013 0.794-0.376 0.278-0.739 0.533-1.092 0.765v0l-8.419-10.069c-0.727 0.608-1.322 1.275-1.787 2.004-0.465 0.728-0.781 1.467-0.951 2.217-0.169 0.75-0.175 1.492-0.016 2.228 0.154 0.73 0.495 1.411 1.024 2.042v0c0.519 0.621 1.02 1.124 1.503 1.508 0.473 0.383 0.913 0.686 1.322 0.908 0.405 0.216 0.763 0.373 1.076 0.468 0.313 0.096 0.555 0.171 0.725 0.226zM240.494 55.113l4.444 5.315c0.119-0.082 0.232-0.167 0.337-0.255 0.11-0.083 0.217-0.168 0.322-0.256v0c0.553-0.462 1.011-0.952 1.374-1.471 0.358-0.514 0.605-1.042 0.741-1.585 0.127-0.544 0.12-1.098-0.02-1.661-0.135-0.558-0.43-1.108-0.884-1.65v0c-0.546-0.653-1.116-1.12-1.709-1.402-0.593-0.292-1.184-0.459-1.775-0.502-0.591-0.043-1.158 0.006-1.701 0.148-0.543 0.132-1.032 0.295-1.469 0.49v0l-2.213 0.562z" fill="#556970" data-fill-palette-color="primary"></path><path d="M269.343 94.874l-10.087 3.556c-0.79 0.278-1.434 0.557-1.933 0.835-0.499 0.278-0.882 0.562-1.151 0.853-0.264 0.282-0.419 0.577-0.463 0.884-0.051 0.309-0.018 0.629 0.098 0.959v0c0.094 0.265 0.194 0.499 0.302 0.701 0.108 0.202 0.212 0.373 0.311 0.512v0c0.109 0.165 0.221 0.308 0.336 0.427v0l-1.73 1.997c-0.131-0.063-0.292-0.177-0.481-0.343-0.183-0.168-0.381-0.379-0.594-0.632-0.204-0.248-0.405-0.541-0.604-0.878-0.199-0.337-0.373-0.716-0.521-1.137v0c-0.377-1.068-0.489-2.007-0.339-2.817 0.16-0.806 0.514-1.513 1.064-2.122 0.55-0.609 1.252-1.133 2.109-1.573 0.854-0.447 1.796-0.851 2.825-1.214v0l9.66-3.406-0.945-2.68 2.854-1.006 0.945 2.679 3.738-1.318 3.158 2.609-5.728 2.02 2.146 6.087-2.981 0.647z" fill="#556970" data-fill-palette-color="primary"></path><path d="M0 140.214c0-5.682 4.606-10.287 10.287-10.288 5.682 0 10.287 4.606 10.288 10.288 0 5.682-4.606 10.287-10.288 10.287-5.682 0-10.287-4.606-10.287-10.287z" fill="#556970" data-fill-palette-color="primary"></path><path d="M259.425 140.214c0-5.682 4.606-10.287 10.288-10.288 5.682 0 10.287 4.606 10.287 10.288 0 5.682-4.606 10.287-10.287 10.287-5.682 0-10.287-4.606-10.288-10.287z" fill="#556970" data-fill-palette-color="primary"></path></g><g id="text-1"><path d="M8.261 187.256v0c-0.419-1.242-0.557-2.459-0.416-3.652 0.137-1.183 0.51-2.29 1.118-3.321 0.611-1.024 1.432-1.938 2.466-2.742 1.026-0.802 2.219-1.432 3.577-1.89v0c1.353-0.456 2.674-0.684 3.963-0.684 1.291 0.007 2.481 0.228 3.57 0.665 1.091 0.443 2.049 1.105 2.875 1.986 0.823 0.874 1.45 1.948 1.879 3.223v0c0.419 1.242 0.564 2.457 0.436 3.645-0.126 1.194-0.488 2.301-1.087 3.321-0.596 1.026-1.403 1.939-2.422 2.739-1.017 0.806-2.202 1.438-3.555 1.893v0c-1.359 0.458-2.688 0.685-3.986 0.681-1.304-0.002-2.508-0.223-3.612-0.662-1.104-0.439-2.072-1.098-2.904-1.976-0.838-0.876-1.472-1.952-1.902-3.226zM19.131 189.404v0c0.91-0.307 1.769-0.705 2.574-1.193 0.806-0.489 1.482-1.061 2.029-1.716 0.545-0.662 0.916-1.399 1.113-2.211 0.203-0.815 0.146-1.693-0.172-2.636v0c-0.302-0.897-0.748-1.606-1.335-2.125-0.59-0.525-1.264-0.892-2.022-1.1-0.752-0.21-1.554-0.28-2.406-0.21-0.846 0.068-1.685 0.242-2.518 0.522v0c-0.904 0.305-1.759 0.701-2.565 1.191-0.806 0.489-1.479 1.06-2.019 1.712-0.543 0.646-0.912 1.376-1.109 2.188-0.193 0.804-0.13 1.677 0.187 2.62v0c0.298 0.884 0.739 1.591 1.322 2.118 0.588 0.519 1.26 0.89 2.016 1.113 0.754 0.217 1.555 0.294 2.403 0.233 0.855-0.064 1.689-0.232 2.502-0.506z" fill="#556970" data-fill-palette-color="secondary"></path><path d="M45.864 219.903l-7.711 6.361c-0.598 0.494-1.073 0.943-1.423 1.348-0.351 0.405-0.596 0.776-0.736 1.114-0.14 0.338-0.182 0.648-0.126 0.931 0.056 0.283 0.188 0.552 0.398 0.806v0c0.166 0.201 0.327 0.375 0.484 0.522 0.162 0.142 0.309 0.256 0.443 0.342v0c0.145 0.111 0.288 0.203 0.427 0.275v0l-0.873 2.308c-0.135-0.013-0.311-0.064-0.526-0.153-0.221-0.085-0.463-0.205-0.726-0.362-0.264-0.147-0.538-0.339-0.822-0.576-0.28-0.232-0.551-0.506-0.813-0.824v0c-0.677-0.821-1.076-1.612-1.199-2.375-0.123-0.753-0.041-1.483 0.247-2.192 0.288-0.718 0.735-1.407 1.339-2.065 0.61-0.663 1.306-1.318 2.09-1.964v0l7.384-6.093-1.69-2.049 2.184-1.801 1.69 2.048 2.859-2.358 3.606 1.282-4.375 3.609 3.833 4.646-2.413 1.523z" fill="#556970" data-fill-palette-color="secondary"></path><path d="M75.34 245.435l-5.325 8.459c-0.413 0.656-0.723 1.232-0.929 1.726-0.206 0.495-0.322 0.924-0.349 1.289-0.027 0.364 0.031 0.672 0.173 0.924 0.142 0.251 0.352 0.465 0.631 0.64v0c0.221 0.139 0.428 0.253 0.623 0.344 0.198 0.084 0.374 0.146 0.527 0.186v0c0.173 0.06 0.337 0.103 0.492 0.127v0l-0.104 2.465c-0.133 0.03-0.315 0.037-0.548 0.02-0.236-0.011-0.504-0.05-0.803-0.116-0.297-0.057-0.617-0.153-0.961-0.289-0.339-0.132-0.682-0.308-1.031-0.527v0c-0.9-0.567-1.528-1.193-1.882-1.879-0.353-0.676-0.504-1.396-0.454-2.159 0.048-0.772 0.256-1.566 0.623-2.381 0.371-0.821 0.827-1.661 1.368-2.521v0l5.101-8.102-2.248-1.415 1.508-2.396 2.248 1.415 1.974-3.136 3.827 0.086-3.022 4.8 5.096 3.208-1.813 2.204z" fill="#556970" data-fill-palette-color="secondary"></path><path d="M118.283 274.847l1.529 2.072c-0.443 0.29-0.909 0.546-1.4 0.769-0.496 0.215-1.031 0.379-1.604 0.493-0.565 0.109-1.175 0.155-1.832 0.138-0.657-0.017-1.371-0.109-2.142-0.277v0c-1.536-0.335-2.787-0.892-3.755-1.672-0.961-0.778-1.688-1.696-2.181-2.751-0.485-1.061-0.76-2.217-0.825-3.467-0.058-1.249 0.053-2.514 0.332-3.795v0c0.178-0.818 0.428-1.61 0.75-2.376 0.33-0.771 0.724-1.486 1.184-2.144 0.454-0.667 0.974-1.263 1.559-1.788 0.592-0.524 1.235-0.946 1.93-1.265 0.701-0.318 1.456-0.525 2.264-0.623 0.813-0.09 1.676-0.035 2.588 0.163v0c1.247 0.272 2.283 0.708 3.107 1.31 0.824 0.601 1.456 1.329 1.895 2.183 0.444 0.862 0.7 1.831 0.767 2.907 0.066 1.082-0.035 2.24-0.304 3.474v0c-0.077 0.355-0.176 0.745-0.297 1.168-0.114 0.425-0.235 0.82-0.363 1.185v0l-11.98-2.612c-0.19 0.872-0.249 1.705-0.176 2.501 0.078 0.804 0.266 1.533 0.566 2.188 0.308 0.65 0.728 1.202 1.262 1.656 0.541 0.448 1.188 0.754 1.938 0.918v0c0.738 0.161 1.393 0.247 1.967 0.26 0.568 0.004 1.067-0.027 1.496-0.096 0.423-0.069 0.775-0.158 1.058-0.264 0.283-0.107 0.505-0.192 0.667-0.255zM112.586 265.892l6.316 1.377c0.041-0.124 0.076-0.25 0.104-0.377 0.033-0.119 0.063-0.243 0.091-0.37v0c0.145-0.664 0.203-1.287 0.175-1.869-0.026-0.589-0.149-1.121-0.368-1.598-0.219-0.476-0.539-0.88-0.958-1.21-0.425-0.338-0.959-0.578-1.603-0.718v0c-0.771-0.168-1.459-0.188-2.063-0.06-0.604 0.128-1.136 0.346-1.596 0.653-0.46 0.307-0.851 0.664-1.172 1.073-0.329 0.413-0.596 0.815-0.8 1.205v0l-1.317 1.694z" fill="#556970" data-fill-palette-color="secondary"></path><path d="M163.506 261.621v0c-0.469 0.066-0.918 0.225-1.346 0.479-0.429 0.254-0.832 0.567-1.21 0.939-0.378 0.372-0.724 0.794-1.039 1.267-0.315 0.474-0.599 0.967-0.854 1.481v0l1.84 13.163-3.334 0.465-2.697-19.299 3.284-0.823 0.553 3.956 1.323-3.324c0.144-0.11 0.321-0.232 0.531-0.366 0.217-0.134 0.466-0.259 0.748-0.374 0.282-0.116 0.585-0.224 0.911-0.325 0.326-0.094 0.666-0.166 1.02-0.215v0c0.523-0.073 0.971-0.091 1.344-0.053 0.367 0.046 0.644 0.097 0.832 0.154v0l0.234 2.94c-0.185-0.036-0.461-0.074-0.826-0.113-0.359-0.04-0.797-0.024-1.314 0.048z" fill="#556970" data-fill-palette-color="secondary"></path><path d="M197.881 251.192l6.977 13.231-2.977 1.57-9.09-17.237 2.809-1.889 1.513 2.868 0.072-2.18c0.124-0.221 0.295-0.478 0.513-0.771 0.227-0.29 0.491-0.585 0.792-0.883 0.301-0.298 0.641-0.594 1.021-0.887 0.38-0.294 0.786-0.554 1.217-0.782v0c0.826-0.435 1.59-0.671 2.292-0.708 0.711-0.034 1.379 0.107 2.003 0.422 0.618 0.318 1.19 0.792 1.716 1.422 0.526 0.63 1.02 1.382 1.481 2.257v0l6.2 11.756-2.978 1.57-6.199-11.756c-0.298-0.565-0.593-1.029-0.887-1.394-0.293-0.365-0.608-0.63-0.943-0.795-0.329-0.168-0.689-0.226-1.081-0.175-0.389 0.042-0.823 0.19-1.303 0.443v0c-0.358 0.189-0.691 0.434-0.997 0.735-0.307 0.301-0.591 0.63-0.854 0.986-0.259 0.362-0.498 0.732-0.717 1.111-0.216 0.385-0.409 0.747-0.58 1.086z" fill="#556970" data-fill-palette-color="secondary"></path><path d="M248.876 221.81l2.543-0.405c0.054 0.526 0.067 1.059 0.039 1.597-0.037 0.54-0.137 1.09-0.299 1.651-0.163 0.551-0.403 1.115-0.719 1.69-0.317 0.575-0.727 1.167-1.231 1.775v0c-1.003 1.21-2.073 2.065-3.21 2.567-1.133 0.496-2.282 0.72-3.447 0.673-1.165-0.057-2.318-0.344-3.458-0.861-1.136-0.523-2.208-1.202-3.217-2.039v0c-0.645-0.534-1.233-1.12-1.766-1.758-0.533-0.647-0.987-1.326-1.36-2.037-0.383-0.71-0.674-1.446-0.872-2.207-0.194-0.767-0.272-1.532-0.236-2.295 0.04-0.769 0.203-1.535 0.487-2.298 0.294-0.763 0.739-1.504 1.335-2.223v0c0.815-0.983 1.678-1.702 2.591-2.157 0.913-0.456 1.849-0.682 2.81-0.68 0.97 0.002 1.948 0.22 2.934 0.654 0.991 0.439 1.973 1.061 2.945 1.867v0c0.28 0.232 0.58 0.499 0.901 0.801 0.325 0.296 0.62 0.585 0.886 0.867v0l-7.825 9.439c0.687 0.569 1.4 1.005 2.14 1.306 0.749 0.3 1.484 0.468 2.203 0.503 0.719 0.025 1.402-0.095 2.05-0.359 0.647-0.275 1.216-0.708 1.707-1.3v0c0.482-0.581 0.86-1.123 1.134-1.627 0.265-0.502 0.466-0.96 0.603-1.372 0.133-0.407 0.216-0.761 0.252-1.062 0.035-0.301 0.062-0.537 0.08-0.71zM238.305 222.755l4.126-4.977c-0.092-0.094-0.188-0.182-0.288-0.266-0.091-0.084-0.186-0.168-0.287-0.251v0c-0.523-0.434-1.049-0.772-1.579-1.015-0.535-0.247-1.064-0.383-1.588-0.407-0.524-0.024-1.029 0.074-1.515 0.295-0.496 0.222-0.954 0.586-1.375 1.094v0c-0.504 0.608-0.837 1.209-1.001 1.804-0.164 0.595-0.215 1.168-0.154 1.718 0.061 0.55 0.199 1.061 0.414 1.533 0.216 0.482 0.45 0.903 0.703 1.265v0l0.899 1.949z" fill="#556970" data-fill-palette-color="secondary"></path><path d="M256.352 180.337l9.444 3.273c0.733 0.254 1.363 0.425 1.892 0.514 0.529 0.089 0.973 0.105 1.335 0.049 0.361-0.057 0.648-0.182 0.86-0.378 0.213-0.195 0.373-0.448 0.481-0.759v0c0.085-0.246 0.15-0.475 0.194-0.685 0.037-0.212 0.058-0.398 0.062-0.556v0c0.02-0.182 0.024-0.351 0.013-0.507v0l2.424-0.457c0.059 0.122 0.107 0.299 0.143 0.529 0.043 0.233 0.066 0.502 0.069 0.809 0.012 0.302-0.01 0.636-0.064 1.002-0.052 0.36-0.145 0.734-0.28 1.123v0c-0.348 1.005-0.816 1.758-1.404 2.259-0.579 0.497-1.246 0.807-2 0.93-0.763 0.128-1.583 0.105-2.461-0.068-0.883-0.175-1.805-0.429-2.765-0.762v0l-9.046-3.135-0.869 2.509-2.675-0.927 0.869-2.509-3.501-1.214-0.783-3.746 5.36 1.857 1.972-5.69 2.557 1.267z" fill="#556970" data-fill-palette-color="secondary"></path></g></svg></g></svg></g></svg></g></svg></g><defs></defs></svg><rect width="280" height="280" fill="none" stroke="none" visibility="hidden"></rect></g></svg></g></svg>